<?xml version="1.0" encoding="UTF-8"?>
<svg width="96" height="96" viewBox="0 0 96 96" version="1.1" xmlns="http://www.w3.org/2000/svg">
    <defs>
        <linearGradient id="gradient" x1="0%" y1="0%" x2="100%" y2="100%">
            <stop offset="0%" style="stop-color:#87CEEB"/>
            <stop offset="100%" style="stop-color:#9370DB"/>
        </linearGradient>
    </defs>
    <g>
        <path d="M48 80c-17.7 0-32-14.3-32-32s14.3-32 32-32 32 14.3 32 32-14.3 32-32 32zm0-60c-15.5 0-28 12.5-28 28s12.5 28 28 28 28-12.5 28-28-12.5-28-28-28z" fill="#000"/>
        <path d="M48 72c-13.3 0-24-10.7-24-24s10.7-24 24-24 24 10.7 24 24-10.7 24-24 24zm0-44c-11 0-20 9-20 20s9 20 20 20 20-9 20-20-9-20-20-20z" fill="url(#gradient)"/>
        <path d="M52 44h-8v-8h8v8zm-4-12c-6.6 0-12 5.4-12 12s5.4 12 12 12 12-5.4 12-12-5.4-12-12-12z" fill="#000"/>
    </g>
</svg>
